<?xml version="1.0" encoding="UTF-8" standalone="no"?>
<!DOCTYPE svg PUBLIC "-//W3C//DTD SVG 1.1//EN"
 "http://www.w3.org/Graphics/SVG/1.1/DTD/svg11.dtd">
<!-- Generated by graphviz version 2.43.0 (0)
 -->
<!-- Title: Entity Relationship Diagram created by erdantic Pages: 1 -->
<svg width="654pt" height="174pt"
 viewBox="0.00 0.00 654.00 174.00" xmlns="http://www.w3.org/2000/svg" xmlns:xlink="http://www.w3.org/1999/xlink">
<g id="graph0" class="graph" transform="scale(1 1) rotate(0) translate(4 170)">
<title>Entity Relationship Diagram created by erdantic</title>
<polygon fill="white" stroke="transparent" points="-4,4 -4,-170 650,-170 650,4 -4,4"/>
<text text-anchor="middle" x="323" y="-6.8" font-family="Times New Roman,Times,Liberation Serif,serif" font-size="9.00" fill="#a8a8a8">Created by erdantic v1.0.5 &lt;https://github.com/drivendataorg/erdantic&gt;</text>
<!-- aind_behavior_change_detection.task_logic.AindChangeDetectionTaskLogic -->
<g id="node1" class="node">
<title>aind_behavior_change_detection.task_logic.AindChangeDetectionTaskLogic</title>
<g id="a_node1"><a xlink:title="aind_behavior_change_detection.task_logic.AindChangeDetectionTaskLogic&#10;&#10;Base Task Primitive.&#10;Holds Task metadata and parameters.&#10;">
<polygon fill="none" stroke="black" points="0.5,-144.5 0.5,-165.5 309.5,-165.5 309.5,-144.5 0.5,-144.5"/>
<text text-anchor="start" x="61" y="-152.3" font-family="Times New Roman,Times,Liberation Serif,serif" font-weight="bold" font-size="14.00">AindChangeDetectionTaskLogic</text>
<polygon fill="none" stroke="black" points="0.5,-123.5 0.5,-144.5 95.5,-144.5 95.5,-123.5 0.5,-123.5"/>
<text text-anchor="start" x="32.5" y="-130.3" font-family="Times New Roman,Times,Liberation Serif,serif" font-size="14.00">name</text>
<polygon fill="none" stroke="black" points="95.5,-123.5 95.5,-144.5 309.5,-144.5 309.5,-123.5 95.5,-123.5"/>
<text text-anchor="start" x="195.5" y="-130.3" font-family="Times New Roman,Times,Liberation Serif,serif" font-size="14.00">str</text>
<polygon fill="none" stroke="black" points="0.5,-102.5 0.5,-123.5 95.5,-123.5 95.5,-102.5 0.5,-102.5"/>
<text text-anchor="start" x="17.5" y="-109.3" font-family="Times New Roman,Times,Liberation Serif,serif" font-size="14.00">description</text>
<polygon fill="none" stroke="black" points="95.5,-102.5 95.5,-123.5 309.5,-123.5 309.5,-102.5 95.5,-102.5"/>
<text text-anchor="start" x="195.5" y="-109.3" font-family="Times New Roman,Times,Liberation Serif,serif" font-size="14.00">str</text>
<polygon fill="none" stroke="black" points="0.5,-81.5 0.5,-102.5 95.5,-102.5 95.5,-81.5 0.5,-81.5"/>
<text text-anchor="start" x="28" y="-88.3" font-family="Times New Roman,Times,Liberation Serif,serif" font-size="14.00">version</text>
<polygon fill="none" stroke="black" points="95.5,-81.5 95.5,-102.5 309.5,-102.5 309.5,-81.5 95.5,-81.5"/>
<text text-anchor="start" x="163.5" y="-88.3" font-family="Times New Roman,Times,Liberation Serif,serif" font-size="14.00">Literal[&#39;0.0.0&#39;]</text>
<polygon fill="none" stroke="black" points="0.5,-60.5 0.5,-81.5 95.5,-81.5 95.5,-60.5 0.5,-60.5"/>
<text text-anchor="start" x="3.5" y="-67.3" font-family="Times New Roman,Times,Liberation Serif,serif" font-size="14.00">task_parameters</text>
<polygon fill="none" stroke="black" points="95.5,-60.5 95.5,-81.5 309.5,-81.5 309.5,-60.5 95.5,-60.5"/>
<text text-anchor="start" x="98.5" y="-67.3" font-family="Times New Roman,Times,Liberation Serif,serif" font-size="14.00">AindChangeDetectionTaskParameters</text>
</a>
</g>
</g>
<!-- aind_behavior_change_detection.task_logic.AindChangeDetectionTaskParameters -->
<g id="node2" class="node">
<title>aind_behavior_change_detection.task_logic.AindChangeDetectionTaskParameters</title>
<g id="a_node2"><a xlink:title="aind_behavior_change_detection.task_logic.AindChangeDetectionTaskParameters&#10;&#10;Set of parameters associated with a subject task.&#10;Subclass with Task Parameters.&#10;">
<polygon fill="none" stroke="black" points="417.5,-59.5 417.5,-80.5 646.5,-80.5 646.5,-59.5 417.5,-59.5"/>
<text text-anchor="start" x="420.5" y="-67.3" font-family="Times New Roman,Times,Liberation Serif,serif" font-weight="bold" font-size="14.00">AindChangeDetectionTaskParameters</text>
<polygon fill="none" stroke="black" points="417.5,-38.5 417.5,-59.5 520.5,-59.5 520.5,-38.5 417.5,-38.5"/>
<text text-anchor="start" x="444.5" y="-45.3" font-family="Times New Roman,Times,Liberation Serif,serif" font-size="14.00">rng_seed</text>
<polygon fill="none" stroke="black" points="520.5,-38.5 520.5,-59.5 646.5,-59.5 646.5,-38.5 520.5,-38.5"/>
<text text-anchor="start" x="542.5" y="-45.3" font-family="Times New Roman,Times,Liberation Serif,serif" font-size="14.00">Optional[float]</text>
<polygon fill="none" stroke="black" points="417.5,-17.5 417.5,-38.5 520.5,-38.5 520.5,-17.5 417.5,-17.5"/>
<text text-anchor="start" x="439" y="-24.3" font-family="Times New Roman,Times,Liberation Serif,serif" font-size="14.00">stage_alias</text>
<polygon fill="none" stroke="black" points="520.5,-17.5 520.5,-38.5 646.5,-38.5 646.5,-17.5 520.5,-17.5"/>
<text text-anchor="start" x="548.5" y="-24.3" font-family="Times New Roman,Times,Liberation Serif,serif" font-size="14.00">Optional[str]</text>
</a>
</g>
</g>
<!-- aind_behavior_change_detection.task_logic.AindChangeDetectionTaskLogic&#45;&gt;aind_behavior_change_detection.task_logic.AindChangeDetectionTaskParameters -->
<g id="edge1" class="edge">
<title>aind_behavior_change_detection.task_logic.AindChangeDetectionTaskLogic:e&#45;&gt;aind_behavior_change_detection.task_logic.AindChangeDetectionTaskParameters:w</title>
<path fill="none" stroke="black" d="M319.12,-70.5C354,-70.5 368.76,-70.5 401.67,-70.5"/>
<polyline fill="none" stroke="black" points="309,-70.5 314,-70.5 "/>
<polyline fill="none" stroke="black" points="314,-70.5 319,-70.5 "/>
<polyline fill="none" stroke="black" points="417,-70.5 412,-70.5 "/>
<polygon fill="black" stroke="black" points="411,-65.5 411,-75.5 409,-75.5 409,-65.5 411,-65.5"/>
<polyline fill="none" stroke="black" points="412,-70.5 407,-70.5 "/>
<polygon fill="black" stroke="black" points="406,-65.5 406,-75.5 404,-75.5 404,-65.5 406,-65.5"/>
<polyline fill="none" stroke="black" points="407,-70.5 402,-70.5 "/>
</g>
</g>
</svg>
